<svg width="86" height="86" viewBox="0 0 86 86"  xmlns="http://www.w3.org/2000/svg">
<path d="M59.125 43C59.125 46.7289 58.9234 50.3234 58.5707 53.75H27.4293C27.0766 50.3234 26.7238 46.7289 26.7238 43C26.7238 39.2711 27.0766 35.6766 27.4293 32.25H58.5707C58.9234 35.6766 59.125 39.2711 59.125 43ZM84.6395 32.25C85.5297 35.6934 86 39.2879 86 43C86 46.7121 85.5297 50.3066 84.6395 53.75H63.9625C64.3152 50.2898 64.5 46.5441 64.5 43C64.5 39.3047 64.3152 35.7102 63.9625 32.25H84.6395ZM82.8758 26.875H63.2738C61.5941 16.1485 58.2684 7.15883 53.9852 1.41799C67.1539 4.88621 77.8367 14.4352 82.8758 26.875ZM57.8316 26.875H28.1684C29.193 20.7609 30.7719 15.349 32.7035 10.9768C34.4672 7.01102 36.4324 4.13371 38.3305 2.31965C40.2117 0.533805 41.7738 0 43 0C44.2262 0 45.7883 0.533805 47.6695 2.31965C49.5676 4.13371 51.5328 7.01102 53.2965 10.9768C55.2281 15.349 56.807 20.7609 57.8316 26.875ZM3.1259 26.875C8.1616 14.4352 18.8461 4.88621 32.0148 1.41799C27.7316 7.15883 24.4059 16.1485 22.7262 26.875H3.1259ZM22.0375 32.25C21.6848 35.7102 21.3488 39.3047 21.3488 43C21.3488 46.5441 21.6848 50.2898 22.0375 53.75H1.35467C0.470312 50.3066 0 46.7121 0 43C0 39.2879 0.470312 35.6934 1.35467 32.25H22.0375ZM32.7035 75.0148C30.7719 70.6477 29.193 65.2391 28.1684 59.125H57.8316C56.807 65.2391 55.2281 70.6477 53.2965 75.0148C51.5328 78.9957 49.5676 81.868 47.6695 83.682C45.7883 85.4625 44.2262 86 42.8488 86C41.7738 86 40.2117 85.4625 38.3305 83.682C36.4324 81.868 34.4672 78.9957 32.7035 75.0148ZM32.0148 84.5891C18.8461 81.1121 8.1616 71.5715 3.1259 59.125H22.7262C24.4059 69.8582 27.7316 78.8445 32.0148 84.5891ZM53.9852 84.5891C58.2684 78.8445 61.5941 69.8582 63.2738 59.125H82.8758C77.8367 71.5715 67.1539 81.1121 53.9852 84.5891Z" />
</svg>
